<svg width="16" height="16" viewBox="0 0 16 16" fill="none" xmlns="http://www.w3.org/2000/svg">
<g clip-path="url(#clip0_189_10731)">
<path d="M3.64175 2.955C4.81041 1.94451 6.33384 1.33325 8.00004 1.33325C11.6819 1.33325 14.6667 4.31802 14.6667 7.99992C14.6667 9.42398 14.2202 10.7438 13.4595 11.827L11.3334 7.99992H13.3334C13.3334 5.0544 10.9456 2.66659 8.00004 2.66659C6.56659 2.66659 5.26522 3.2321 4.30686 4.1522L3.64175 2.955ZM12.3583 13.0449C11.1896 14.0553 9.66624 14.6666 8.00004 14.6666C4.31814 14.6666 1.33337 11.6818 1.33337 7.99992C1.33337 6.57582 1.7799 5.25603 2.54057 4.17288L4.66671 7.99992H2.66671C2.66671 10.9455 5.05452 13.3333 8.00004 13.3333C9.43351 13.3333 10.7348 12.7677 11.6932 11.8477L12.3583 13.0449Z" fill="white"/>
</g>
<defs>
<clipPath id="clip0_189_10731">
<rect width="16" height="16" fill="white"/>
</clipPath>
</defs>
</svg>
