<svg width="16" height="16" viewBox="0 0 16 16" fill="none" xmlns="http://www.w3.org/2000/svg">
<path d="M9.33332 9.50068V10.8936C8.91626 10.7462 8.46752 10.666 7.99999 10.666C5.79085 10.666 3.99999 12.4569 3.99999 14.666H2.66666C2.66666 11.7205 5.05447 9.33268 7.99999 9.33268C8.46039 9.33268 8.90719 9.39102 9.33332 9.50068ZM7.99999 8.66602C5.78999 8.66602 3.99999 6.87602 3.99999 4.66602C3.99999 2.45602 5.78999 0.666016 7.99999 0.666016C10.21 0.666016 12 2.45602 12 4.66602C12 6.87602 10.21 8.66602 7.99999 8.66602ZM7.99999 7.33268C9.47332 7.33268 10.6667 6.13935 10.6667 4.66602C10.6667 3.19268 9.47332 1.99935 7.99999 1.99935C6.52666 1.99935 5.33332 3.19268 5.33332 4.66602C5.33332 6.13935 6.52666 7.33268 7.99999 7.33268ZM12 11.3327V9.33268H13.3333V11.3327H15.3333V12.666H13.3333V14.666H12V12.666H9.99999V11.3327H12Z" fill="white"/>
</svg>
