<svg width="72" height="72" viewBox="0 0 72 72" fill="none" xmlns="http://www.w3.org/2000/svg">
<path d="M28.0968 32.0463C30.9061 36.9864 35.0137 41.094 39.9538 43.9032L42.6073 40.1883C43.4896 38.9535 45.1549 38.5719 46.4869 39.2994C50.7073 41.6049 55.3714 43.0059 60.2368 43.3911C61.7971 43.5147 63.0001 44.8167 63.0001 46.3818V59.7702C63.0001 61.3083 61.8367 62.5971 60.3067 62.7543C58.717 62.9178 57.1132 63 55.5001 63C29.8189 63 9.00012 42.1812 9.00012 16.5C9.00012 14.8868 9.08238 13.2831 9.24579 11.6933C9.40302 10.1632 10.6919 9 12.2301 9H25.6184C27.1834 9 28.4855 10.2031 28.609 11.7633C28.9941 16.6286 30.3952 21.2929 32.7007 25.5133C33.4282 26.8452 33.0466 28.5106 31.8118 29.3927L28.0968 32.0463ZM20.5329 30.0756L26.2327 26.0043C24.6165 22.5154 23.509 18.8155 22.9419 15H15.0273C15.0092 15.499 15.0001 15.999 15.0001 16.5C15.0001 38.8674 33.1327 57 55.5001 57C56.0011 57 56.5012 56.991 57.0001 56.9727V49.0581C53.1847 48.4911 49.4848 47.3835 45.9958 45.7674L41.9245 51.4674C40.2775 50.8275 38.6869 50.0745 37.1623 49.2183L36.988 49.119C31.1092 45.7761 26.2241 40.8909 22.8811 35.0121L22.7819 34.8378C21.9256 33.3132 21.1727 31.7226 20.5329 30.0756Z" fill="#6AC161"/>
</svg>
