<svg width="72" height="72" viewBox="0 0 72 72" fill="none" xmlns="http://www.w3.org/2000/svg">
<path d="M21.8737 62.4726L6.00018 66L9.52761 50.1264C7.2765 45.9168 6.00018 41.1075 6.00018 36C6.00018 19.4314 19.4316 6 36.0002 6C52.5686 6 66.0002 19.4314 66.0002 36C66.0002 52.5684 52.5686 66 36.0002 66C30.8927 66 26.0834 64.7238 21.8737 62.4726ZM22.7424 56.133L24.703 57.1815C28.1476 59.0235 31.9967 60 36.0002 60C49.2551 60 60.0002 49.2549 60.0002 36C60.0002 22.7452 49.2551 12 36.0002 12C22.7453 12 12.0002 22.7452 12.0002 36C12.0002 40.0035 12.9767 43.8525 14.8187 47.2971L15.8671 49.2576L13.9027 58.0974L22.7424 56.133Z" fill="#AC1DD2"/>
</svg>
