<svg width="20" height="20" viewBox="0 0 20 20" fill="none" xmlns="http://www.w3.org/2000/svg">
<path d="M10.7216 2.50079L18.6602 16.2508C18.8903 16.6494 18.7538 17.1591 18.3552 17.3892C18.2285 17.4623 18.0848 17.5008 17.9385 17.5008H2.06136C1.60113 17.5008 1.22803 17.1277 1.22803 16.6675C1.22803 16.5212 1.26654 16.3775 1.33968 16.2508L9.27825 2.50079C9.50834 2.10221 10.018 1.96565 10.4166 2.19577C10.5433 2.26891 10.6485 2.37411 10.7216 2.50079ZM3.50474 15.8342H16.4951L9.99992 4.58413L3.50474 15.8342ZM9.16659 13.3342H10.8333V15.0008H9.16659V13.3342ZM9.16659 7.50079H10.8333V11.6675H9.16659V7.50079Z" fill="#F93B3A"/>
</svg>
