<svg width="40" height="40" viewBox="0 0 40 40" fill="none" xmlns="http://www.w3.org/2000/svg">
<path d="M6.30512 4.71029L20 1.66699L33.6948 4.71029C34.4575 4.87976 35 5.55611 35 6.33728V22.9818C35 26.3253 33.329 29.4477 30.547 31.3023L20 38.3337L9.453 31.3023C6.67102 29.4477 5 26.3253 5 22.9818V6.33728C5 5.55611 5.54255 4.87976 6.30512 4.71029ZM8.33333 7.67423V22.9818C8.33333 25.2108 9.44733 27.2923 11.302 28.5288L20 34.3275L28.698 28.5288C30.5527 27.2923 31.6667 25.2108 31.6667 22.9818V7.67423L20 5.08164L8.33333 7.67423ZM18.3333 16.667V11.667H21.6667V16.667H26.6667V20.0003H21.6667V25.0003H18.3333V20.0003H13.3333V16.667H18.3333Z" fill="white"/>
</svg>
