<svg width="40" height="40" viewBox="0 0 40 40" fill="none" xmlns="http://www.w3.org/2000/svg">
<path d="M19.9998 34.481L16.6513 32.5424L16.6467 36.3913L20 38.3327L23.3525 36.3919L23.3478 32.5429L19.9998 34.481ZM26.6788 30.6143L26.6835 34.4634L35.8333 29.166V18.5755L32.5 20.4947V27.2442L26.6788 30.6143ZM32.5 16.6483L35.8333 14.7292V10.8327L32.5068 8.90682L29.1803 10.8326L32.5 12.7545V16.6483ZM25.854 8.90682L29.1803 6.98098L20 1.66602L10.8194 6.98108L14.1458 8.90692L19.9998 5.51775L25.854 8.90682ZM10.8194 10.8327L7.49294 8.90692L4.16663 10.8327V14.7298L7.49986 16.649V12.7546L10.8194 10.8327ZM4.16663 18.5762L7.49986 20.4953V27.2442L13.3202 30.6138L13.3156 34.4629L4.16663 29.166V18.5762ZM29.1665 14.6764L25.8538 12.7585L19.9998 16.1477L14.1459 12.7586L10.8333 14.6765V18.5682L16.664 21.9252L16.6559 28.6933L19.9998 30.6294L23.3431 28.6938L23.3351 21.925L29.1665 18.5675V14.6764ZM13.3249 26.765L13.3283 23.851L10.8333 22.4145V25.3225L13.3249 26.765ZM17.4723 10.8328L19.9998 12.296L22.5273 10.8327L20 9.36947L17.4723 10.8328ZM26.6708 23.8508L29.1665 22.414V25.3223L26.6743 26.7654L26.6708 23.8508Z" fill="#1D86FF"/>
</svg>
