<svg width="40" height="40" viewBox="0 0 40 40" fill="none" xmlns="http://www.w3.org/2000/svg">
<path d="M20 34.8322L28.2495 26.5825C32.8057 22.0265 32.8057 14.6395 28.2495 10.0834C23.6935 5.52731 16.3065 5.52731 11.7504 10.0834C7.1943 14.6395 7.1943 22.0265 11.7504 26.5825L20 34.8322ZM20 39.5462L9.3934 28.9397C3.53553 23.0817 3.53553 13.5843 9.3934 7.72641C15.2513 1.86854 24.7487 1.86854 30.6067 7.72641C36.4645 13.5843 36.4645 23.0817 30.6067 28.9397L20 39.5462ZM20 21.6663C21.841 21.6663 23.3333 20.174 23.3333 18.333C23.3333 16.4921 21.841 14.9997 20 14.9997C18.159 14.9997 16.6667 16.4921 16.6667 18.333C16.6667 20.174 18.159 21.6663 20 21.6663ZM20 24.9997C16.3181 24.9997 13.3333 22.0148 13.3333 18.333C13.3333 14.6511 16.3181 11.6663 20 11.6663C23.6818 11.6663 26.6667 14.6511 26.6667 18.333C26.6667 22.0148 23.6818 24.9997 20 24.9997Z" fill="white"/>
</svg>
