<svg width="40" height="40" viewBox="0 0 40 40" fill="none" xmlns="http://www.w3.org/2000/svg">
<path d="M3.33337 36.667C3.33337 29.3032 9.30291 23.3337 16.6667 23.3337C24.0305 23.3337 30 29.3032 30 36.667H26.6667C26.6667 31.1442 22.1895 26.667 16.6667 26.667C11.1439 26.667 6.66671 31.1442 6.66671 36.667H3.33337ZM16.6667 21.667C11.1417 21.667 6.66671 17.192 6.66671 11.667C6.66671 6.14199 11.1417 1.66699 16.6667 1.66699C22.1917 1.66699 26.6667 6.14199 26.6667 11.667C26.6667 17.192 22.1917 21.667 16.6667 21.667ZM16.6667 18.3337C20.35 18.3337 23.3334 15.3503 23.3334 11.667C23.3334 7.98366 20.35 5.00033 16.6667 5.00033C12.9834 5.00033 10 7.98366 10 11.667C10 15.3503 12.9834 18.3337 16.6667 18.3337ZM30.4729 24.505C35.1074 26.5938 38.3334 31.2537 38.3334 36.667H35C35 32.607 32.5805 29.1122 29.1047 27.5455L30.4729 24.505ZM29.327 5.68901C32.6574 7.06204 35 10.3397 35 14.167C35 18.9507 31.3404 22.8757 26.6667 23.2963V19.9413C29.4945 19.5373 31.6667 17.107 31.6667 14.167C31.6667 11.8659 30.336 9.87704 28.4017 8.92758L29.327 5.68901Z" fill="white"/>
</svg>
