<svg width="40" height="40" viewBox="0 0 40 40" fill="none" xmlns="http://www.w3.org/2000/svg">
<path d="M15 1.66699V5.00033H25V1.66699H28.3334V5.00033H35C35.9205 5.00033 36.6667 5.74653 36.6667 6.66699V33.3337C36.6667 34.2542 35.9205 35.0003 35 35.0003H5.00004C4.07957 35.0003 3.33337 34.2542 3.33337 33.3337V6.66699C3.33337 5.74653 4.07957 5.00033 5.00004 5.00033H11.6667V1.66699H15ZM33.3334 18.3337H6.66671V31.667H33.3334V18.3337ZM13.3334 23.3337V26.667H10V23.3337H13.3334ZM30 23.3337V26.667H16.6667V23.3337H30ZM11.6667 8.33366H6.66671V15.0003H33.3334V8.33366H28.3334V11.667H25V8.33366H15V11.667H11.6667V8.33366Z" fill="white"/>
</svg>
