<svg width="40" height="40" viewBox="0 0 40 40" fill="none" xmlns="http://www.w3.org/2000/svg">
<path d="M14.4773 6.66648L18.8217 2.32215C19.4725 1.67126 20.5279 1.67126 21.1787 2.32215L25.523 6.66648H31.6669C32.5874 6.66648 33.3335 7.41268 33.3335 8.33315V14.477L37.6779 18.8213C38.3287 19.4722 38.3287 20.5275 37.6779 21.1783L33.3335 25.5227V31.6665C33.3335 32.587 32.5874 33.3332 31.6669 33.3332H25.523L21.1787 37.6775C20.5279 38.3284 19.4725 38.3284 18.8217 37.6775L14.4773 33.3332H8.33351C7.41305 33.3332 6.66685 32.587 6.66685 31.6665V25.5227L2.32251 21.1783C1.67163 20.5275 1.67163 19.4722 2.32251 18.8213L6.66685 14.477V8.33315C6.66685 7.41268 7.41305 6.66648 8.33351 6.66648H14.4773ZM10.0002 9.99981V15.8577L5.85805 19.9998L10.0002 24.142V29.9998H15.858L20.0002 34.142L24.1424 29.9998H30.0002V24.142L34.1424 19.9998L30.0002 15.8577V9.99981H24.1424L20.0002 5.85768L15.858 9.99981H10.0002ZM20.0002 26.6665C16.3183 26.6665 13.3335 23.6817 13.3335 19.9998C13.3335 16.3179 16.3183 13.3331 20.0002 13.3331C23.682 13.3331 26.6669 16.3179 26.6669 19.9998C26.6669 23.6817 23.682 26.6665 20.0002 26.6665ZM20.0002 23.3332C21.8412 23.3332 23.3335 21.8408 23.3335 19.9998C23.3335 18.1588 21.8412 16.6665 20.0002 16.6665C18.1592 16.6665 16.6669 18.1588 16.6669 19.9998C16.6669 21.8408 18.1592 23.3332 20.0002 23.3332Z" fill="white"/>
</svg>
