<svg width="40" height="40" viewBox="0 0 40 40" fill="none" xmlns="http://www.w3.org/2000/svg">
<path d="M29.6176 6.69531C33.7371 9.67843 36.4164 14.526 36.4164 20C36.4162 29.0663 29.0667 36.4158 20.0004 36.416C10.9338 36.416 3.58355 29.0664 3.58337 20C3.58337 14.5261 6.2629 9.67845 10.3822 6.69531L12.0072 9.0166C8.61943 11.4862 6.41638 15.4858 6.41638 20C6.41656 27.5018 12.4986 33.583 20.0004 33.583C27.502 33.5828 33.5832 27.5016 33.5834 20C33.5834 15.4857 31.3804 11.4862 27.9926 9.0166L29.6176 6.69531ZM21.4164 3.58301V19.75H18.5834V3.58301H21.4164Z" fill="white" stroke="white" stroke-width="0.5"/>
</svg>
