<svg width="40" height="40" viewBox="0 0 40 40" fill="none" xmlns="http://www.w3.org/2000/svg">
<path d="M20 29.9993C14.4771 29.9993 9.99996 25.5222 9.99996 19.9993C9.99996 14.4765 14.4771 9.99935 20 9.99935C25.5228 9.99935 30 14.4765 30 19.9993C30 25.5222 25.5228 29.9993 20 29.9993ZM18.3333 1.66602H21.6666V6.66602H18.3333V1.66602ZM18.3333 33.3327H21.6666V38.3327H18.3333V33.3327ZM5.85783 8.21423L8.21484 5.85722L11.7504 9.39275L9.39336 11.7498L5.85783 8.21423ZM28.2495 30.606L30.6066 28.2488L34.1421 31.7845L31.7851 34.1415L28.2495 30.606ZM31.7851 5.85722L34.1421 8.21423L30.6066 11.7498L28.2495 9.39275L31.7851 5.85722ZM9.39336 28.2488L11.7504 30.606L8.21484 34.1415L5.85783 31.7845L9.39336 28.2488ZM38.3333 18.3327V21.666H33.3333V18.3327H38.3333ZM6.66663 18.3327V21.666H1.66663V18.3327H6.66663Z" fill="#C9B23F"/>
</svg>
