<svg width="48" height="48" viewBox="0 0 48 48" fill="none" xmlns="http://www.w3.org/2000/svg">
<path d="M34 18.4L44.4266 11.1014C44.879 10.7847 45.5026 10.8947 45.8192 11.3472C45.9368 11.5153 46 11.7155 46 11.9207V36.0794C46 36.6316 45.5522 37.0794 45 37.0794C44.7948 37.0794 44.5946 37.0162 44.4266 36.8986L34 29.6V38C34 39.1046 33.1046 40 32 40H4C2.89544 40 2 39.1046 2 38V10C2 8.89544 2.89544 8 4 8H32C33.1046 8 34 8.89544 34 10V18.4ZM34 24.7174L42 30.3174V17.6826L34 23.2826V24.7174ZM6 12V36H30V12H6Z" fill="#DA2D2C"/>
</svg>
