<svg width="56" height="59" viewBox="0 0 56 59" fill="none" xmlns="http://www.w3.org/2000/svg">
<path opacity="0.154715" d="M27.6484 28.6572L1.15039 39.4775V11.043L27.6484 0.222656V28.6572Z" fill="url(#paint0_linear_971_1530)" stroke="url(#paint1_linear_971_1530)" stroke-width="0.3" stroke-linejoin="round"/>
<path opacity="0.154715" d="M26.9541 28.6572L53.4521 39.4775L53.4521 11.043L26.9541 0.222656L26.9541 28.6572Z" fill="url(#paint2_linear_971_1530)" stroke="url(#paint3_linear_971_1530)" stroke-width="0.3" stroke-linejoin="round"/>
<path opacity="0.150437" fill-rule="evenodd" clip-rule="evenodd" d="M1 46.4419L27.7734 58.5556L54.5975 46.4439L27.8241 35.7275L1 46.4419V46.4419Z" stroke="url(#paint4_linear_971_1530)" stroke-width="0.6"/>
<path opacity="0.304594" fill-rule="evenodd" clip-rule="evenodd" d="M1 42.9703L27.7734 55.0839L54.5975 42.9722L27.8241 32.2559L1 42.9703Z" fill="url(#paint5_linear_971_1530)" fill-opacity="0.8" stroke="url(#paint6_linear_971_1530)" stroke-width="0.3" stroke-linejoin="bevel"/>
<path fill-rule="evenodd" clip-rule="evenodd" d="M1 39.4986L27.7734 51.6122L54.5975 39.5005L27.8241 28.7842L1 39.4986Z" fill="url(#paint7_linear_971_1530)" fill-opacity="0.5" stroke="url(#paint8_linear_971_1530)" stroke-width="1.2" stroke-linejoin="bevel"/>
<path d="M18.1939 38.4779C14.0357 35.4473 11.3334 30.5393 11.3334 24.9999C11.3334 15.7952 18.7953 8.33325 28 8.33325C37.2047 8.33325 44.6667 15.7952 44.6667 24.9999C44.6667 30.5393 41.9644 35.4473 37.8062 38.4779L36.1154 35.5799C39.2882 33.1426 41.3334 29.3101 41.3334 24.9999C41.3334 17.6361 35.3639 11.6666 28 11.6666C20.6362 11.6666 14.6667 17.6361 14.6667 24.9999C14.6667 29.3101 16.7119 33.1426 19.8847 35.5799L18.1939 38.4779ZM21.5828 32.6696C19.3927 30.8353 18 28.0803 18 24.9999C18 19.4771 22.4772 14.9999 28 14.9999C33.5229 14.9999 38 19.4771 38 24.9999C38 28.0803 36.6074 30.8353 34.4172 32.6696L32.7005 29.7274C33.915 28.5199 34.6667 26.8478 34.6667 24.9999C34.6667 21.318 31.6819 18.3333 28 18.3333C24.3181 18.3333 21.3334 21.318 21.3334 24.9999C21.3334 26.8478 22.0851 28.5199 23.2995 29.7274L21.5828 32.6696ZM26.3334 26.6666H29.6667L31.3334 41.6666H24.6667L26.3334 26.6666Z" fill="url(#paint9_linear_971_1530)"/>
<defs>
<linearGradient id="paint0_linear_971_1530" x1="-4.37505" y1="31.4641" x2="24.6108" y2="39.3128" gradientUnits="userSpaceOnUse">
<stop stop-color="#95BCFF"/>
<stop offset="1" stop-color="#1A2A4E"/>
</linearGradient>
<linearGradient id="paint1_linear_971_1530" x1="-4.85745" y1="31.1537" x2="24.5057" y2="39.8181" gradientUnits="userSpaceOnUse">
<stop stop-color="#00CBFF"/>
<stop offset="1" stop-color="#00B9FF" stop-opacity="0.01"/>
</linearGradient>
<linearGradient id="paint2_linear_971_1530" x1="58.9776" y1="31.4641" x2="29.9918" y2="39.3128" gradientUnits="userSpaceOnUse">
<stop stop-color="#95BCFF"/>
<stop offset="1" stop-color="#1C2C52"/>
</linearGradient>
<linearGradient id="paint3_linear_971_1530" x1="59.46" y1="31.1537" x2="30.0968" y2="39.8181" gradientUnits="userSpaceOnUse">
<stop stop-color="#00CBFF"/>
<stop offset="1" stop-color="#00B9FF" stop-opacity="0.01"/>
</linearGradient>
<linearGradient id="paint4_linear_971_1530" x1="10.5326" y1="43.8477" x2="10.5326" y2="58.5556" gradientUnits="userSpaceOnUse">
<stop stop-color="#95BCFF" stop-opacity="0.01"/>
<stop offset="1" stop-color="#95BCFF"/>
</linearGradient>
<linearGradient id="paint5_linear_971_1530" x1="1.40316" y1="32.2559" x2="1.40316" y2="54.7405" gradientUnits="userSpaceOnUse">
<stop stop-color="#203058"/>
<stop offset="1" stop-color="#95BCFF"/>
</linearGradient>
<linearGradient id="paint6_linear_971_1530" x1="0.999973" y1="32.2559" x2="0.999973" y2="55.0839" gradientUnits="userSpaceOnUse">
<stop stop-color="#95BCFF" stop-opacity="0.01"/>
<stop offset="1" stop-color="#95BCFF"/>
</linearGradient>
<linearGradient id="paint7_linear_971_1530" x1="1.40319" y1="28.7842" x2="1.40319" y2="51.2688" gradientUnits="userSpaceOnUse">
<stop stop-color="#21305A"/>
<stop offset="1" stop-color="#95BCFF"/>
</linearGradient>
<linearGradient id="paint8_linear_971_1530" x1="9.27363" y1="35.8319" x2="9.27363" y2="51.6122" gradientUnits="userSpaceOnUse">
<stop stop-color="#95BCFF" stop-opacity="0.01"/>
<stop offset="1" stop-color="#95BCFF"/>
</linearGradient>
<linearGradient id="paint9_linear_971_1530" x1="30.328" y1="7.44267" x2="30.328" y2="45.6896" gradientUnits="userSpaceOnUse">
<stop stop-color="#95BCFF"/>
<stop offset="0.995192" stop-color="#95BCFF" stop-opacity="0"/>
</linearGradient>
</defs>
</svg>
