<svg width="56" height="59" viewBox="0 0 56 59" fill="none" xmlns="http://www.w3.org/2000/svg">
<path opacity="0.154715" d="M27.6484 28.6572L1.15039 39.4775V11.043L27.6484 0.222656V28.6572Z" fill="url(#paint0_linear_971_1531)" stroke="url(#paint1_linear_971_1531)" stroke-width="0.3" stroke-linejoin="round"/>
<path opacity="0.154715" d="M26.9541 28.6572L53.4521 39.4775L53.4521 11.043L26.9541 0.222656L26.9541 28.6572Z" fill="url(#paint2_linear_971_1531)" stroke="url(#paint3_linear_971_1531)" stroke-width="0.3" stroke-linejoin="round"/>
<path opacity="0.150437" fill-rule="evenodd" clip-rule="evenodd" d="M1 46.4419L27.7734 58.5556L54.5975 46.4439L27.8241 35.7275L1 46.4419V46.4419Z" stroke="url(#paint4_linear_971_1531)" stroke-width="0.6"/>
<path opacity="0.304594" fill-rule="evenodd" clip-rule="evenodd" d="M1 42.9703L27.7734 55.0839L54.5975 42.9722L27.8241 32.2559L1 42.9703Z" fill="url(#paint5_linear_971_1531)" fill-opacity="0.8" stroke="url(#paint6_linear_971_1531)" stroke-width="0.3" stroke-linejoin="bevel"/>
<path fill-rule="evenodd" clip-rule="evenodd" d="M1 39.4986L27.7734 51.6122L54.5975 39.5005L27.8241 28.7842L1 39.4986Z" fill="url(#paint7_linear_971_1531)" fill-opacity="0.5" stroke="url(#paint8_linear_971_1531)" stroke-width="1.2" stroke-linejoin="bevel"/>
<path d="M40.0462 35.2203L42.9925 32.274L45.9387 35.2203C47.5658 36.8475 47.5658 39.4856 45.9387 41.1128C44.3115 42.74 41.6733 42.74 40.0462 41.1128C38.419 39.4856 38.419 36.8475 40.0462 35.2203ZM22.7977 5.79932L41.6538 24.6555C42.3047 25.3063 42.3047 26.3616 41.6538 27.0125L27.5117 41.1546C26.8608 41.8055 25.8055 41.8055 25.1547 41.1546L11.0126 27.0125C10.3617 26.3616 10.3617 25.3063 11.0126 24.6555L23.9762 11.6919L20.4407 8.15635L22.7977 5.79932ZM26.3332 14.0489L14.5481 25.834H38.1183L26.3332 14.0489Z" fill="url(#paint9_linear_971_1531)"/>
<defs>
<linearGradient id="paint0_linear_971_1531" x1="-4.37505" y1="31.4641" x2="24.6108" y2="39.3128" gradientUnits="userSpaceOnUse">
<stop stop-color="#95BCFF"/>
<stop offset="1" stop-color="#1A2A4E"/>
</linearGradient>
<linearGradient id="paint1_linear_971_1531" x1="-4.85745" y1="31.1537" x2="24.5057" y2="39.8181" gradientUnits="userSpaceOnUse">
<stop stop-color="#00CBFF"/>
<stop offset="1" stop-color="#00B9FF" stop-opacity="0.01"/>
</linearGradient>
<linearGradient id="paint2_linear_971_1531" x1="58.9776" y1="31.4641" x2="29.9918" y2="39.3128" gradientUnits="userSpaceOnUse">
<stop stop-color="#95BCFF"/>
<stop offset="1" stop-color="#1C2C52"/>
</linearGradient>
<linearGradient id="paint3_linear_971_1531" x1="59.46" y1="31.1537" x2="30.0968" y2="39.8181" gradientUnits="userSpaceOnUse">
<stop stop-color="#00CBFF"/>
<stop offset="1" stop-color="#00B9FF" stop-opacity="0.01"/>
</linearGradient>
<linearGradient id="paint4_linear_971_1531" x1="10.5326" y1="43.8477" x2="10.5326" y2="58.5556" gradientUnits="userSpaceOnUse">
<stop stop-color="#95BCFF" stop-opacity="0.01"/>
<stop offset="1" stop-color="#95BCFF"/>
</linearGradient>
<linearGradient id="paint5_linear_971_1531" x1="1.40316" y1="32.2559" x2="1.40316" y2="54.7405" gradientUnits="userSpaceOnUse">
<stop stop-color="#203058"/>
<stop offset="1" stop-color="#95BCFF"/>
</linearGradient>
<linearGradient id="paint6_linear_971_1531" x1="0.999973" y1="32.2559" x2="0.999973" y2="55.0839" gradientUnits="userSpaceOnUse">
<stop stop-color="#95BCFF" stop-opacity="0.01"/>
<stop offset="1" stop-color="#95BCFF"/>
</linearGradient>
<linearGradient id="paint7_linear_971_1531" x1="1.40319" y1="28.7842" x2="1.40319" y2="51.2688" gradientUnits="userSpaceOnUse">
<stop stop-color="#21305A"/>
<stop offset="1" stop-color="#95BCFF"/>
</linearGradient>
<linearGradient id="paint8_linear_971_1531" x1="9.27363" y1="35.8319" x2="9.27363" y2="51.6122" gradientUnits="userSpaceOnUse">
<stop stop-color="#95BCFF" stop-opacity="0.01"/>
<stop offset="1" stop-color="#95BCFF"/>
</linearGradient>
<linearGradient id="paint9_linear_971_1531" x1="27.7278" y1="4.82325" x2="27.7278" y2="47.203" gradientUnits="userSpaceOnUse">
<stop stop-color="#95BCFF"/>
<stop offset="0.995192" stop-color="#95BCFF" stop-opacity="0"/>
</linearGradient>
</defs>
</svg>
