<svg width="24" height="24" viewBox="0 0 24 24" fill="none" xmlns="http://www.w3.org/2000/svg">
<path d="M12.0001 16.2053C12.8367 16.2096 13.6557 15.9652 14.3532 15.5033C15.0507 15.0413 15.5952 14.3825 15.9176 13.6105C16.24 12.8385 16.3258 11.9881 16.164 11.1672C16.0023 10.3464 15.6003 9.59214 15.0091 9.00018C14.4179 8.40821 13.6641 8.00525 12.8435 7.84242C12.0229 7.6796 11.1724 7.76426 10.4 8.08566C9.62755 8.40707 8.96804 8.95072 8.50514 9.64761C8.04224 10.3445 7.79684 11.1632 7.80007 11.9998C7.80151 13.1138 8.2443 14.1818 9.03148 14.97C9.81867 15.7582 10.8861 16.2024 12.0001 16.2053ZM2.18189 11.9998C2.18156 11.3024 2.2473 10.6066 2.37825 9.92164C2.96772 9.85541 3.53246 9.64773 4.02441 9.31629C4.51635 8.98484 4.92093 8.53945 5.2037 8.018C5.50564 7.47228 5.67572 6.86348 5.70034 6.24028C5.72497 5.61708 5.60346 4.99676 5.34552 4.42891C6.38888 3.41338 7.64717 2.64536 9.02734 2.18164C9.35182 2.68955 9.79899 3.10756 10.3276 3.39712C10.8562 3.68667 11.4492 3.83845 12.0519 3.83845C12.6546 3.83845 13.2476 3.68667 13.7762 3.39712C14.3048 3.10756 14.7519 2.68955 15.0764 2.18164C16.4529 2.65638 17.7054 3.43361 18.7419 4.45619C18.4917 5.02249 18.3772 5.63939 18.4075 6.25776C18.4378 6.87613 18.6121 7.47888 18.9164 8.018C19.1952 8.51769 19.587 8.94519 20.0606 9.26628C20.5342 9.58737 21.0763 9.79313 21.6437 9.86709C21.9376 11.3647 21.9116 12.9075 21.5673 14.3944C21.0127 14.4893 20.4868 14.709 20.0295 15.0369C19.5721 15.3647 19.1953 15.7922 18.9273 16.2871C18.6514 16.7817 18.4844 17.3296 18.4373 17.894C18.3903 18.4584 18.4644 19.0264 18.6546 19.5598C17.577 20.5937 16.2762 21.3663 14.8528 21.818C14.5184 21.3865 14.0896 21.0373 13.5994 20.797C13.1092 20.5567 12.5705 20.4318 12.0246 20.4318C11.4787 20.4318 10.94 20.5567 10.4498 20.797C9.95959 21.0373 9.53086 21.3865 9.19643 21.818C7.79607 21.3706 6.5163 20.6094 5.45461 19.5925C5.65643 19.052 5.73852 18.474 5.6952 17.8986C5.65188 17.3232 5.48419 16.7641 5.2037 16.2598C4.93002 15.751 4.54062 15.3137 4.06689 14.983C3.59317 14.6524 3.04837 14.4377 2.47643 14.3562C2.29202 13.5839 2.19324 12.7937 2.18189 11.9998Z" fill="white"/>
</svg>
