<svg width="40" height="40" viewBox="0 0 40 40" fill="none" xmlns="http://www.w3.org/2000/svg">
<g clip-path="url(#clip0_204_305)">
<g clip-path="url(#clip1_204_305)">
<path d="M5.00004 3C4.07957 3 3.33337 3.7462 3.33337 4.66667V11.3333H12.5V3H5.00004ZM15.8334 3V11.3333H24.1667V3H15.8334ZM27.5 3V11.3333H36.6667V4.66667C36.6667 3.7462 35.9205 3 35 3H27.5ZM36.6667 14.6667H27.5V21.3333H36.6667V14.6667ZM36.6667 24.6667H27.5V33H35C35.9205 33 36.6667 32.2538 36.6667 31.3333V24.6667ZM24.1667 33V24.6667H15.8334V33H24.1667ZM12.5 33V24.6667H3.33337V31.3333C3.33337 32.2538 4.07957 33 5.00004 33H12.5ZM3.33337 21.3333H12.5V14.6667H3.33337V21.3333ZM15.8334 14.6667H24.1667V21.3333H15.8334V14.6667Z" fill="#197FF5"/>
</g>
</g>
<defs>
<clipPath id="clip0_204_305">
<rect width="40" height="40" fill="white"/>
</clipPath>
<clipPath id="clip1_204_305">
<rect width="40" height="40" fill="white" transform="translate(0 -2)"/>
</clipPath>
</defs>
</svg>
