<svg width="40" height="40" viewBox="0 0 40 40" fill="none" xmlns="http://www.w3.org/2000/svg">
<path d="M21.4432 5.00061L37.3203 32.5007C37.7807 33.2978 37.5075 34.3172 36.7103 34.7773C36.457 34.9237 36.1695 35.0007 35.877 35.0007H4.12272C3.20225 35.0007 2.45605 34.2545 2.45605 33.334C2.45605 33.0413 2.53307 32.754 2.67935 32.5007L18.5565 5.00061C19.0167 4.20344 20.036 3.93033 20.8332 4.39056C21.0865 4.53684 21.297 4.74724 21.4432 5.00061ZM7.00947 31.6673H32.9902L19.9998 9.16728L7.00947 31.6673ZM18.3332 26.6673H21.6665V30.0007H18.3332V26.6673ZM18.3332 15.0006H21.6665V23.334H18.3332V15.0006Z" fill="#FFE600"/>
</svg>
