<svg width="40" height="40" viewBox="0 0 40 40" fill="none" xmlns="http://www.w3.org/2000/svg">
<path d="M15.8333 10.0003C9.85021 10.0003 4.99996 14.8506 4.99996 20.8337C4.99996 26.8168 9.85021 31.667 15.8333 31.667H27.5C31.6421 31.667 35 28.3092 35 24.167C35 20.0248 31.6421 16.667 27.5 16.667C26.9528 16.667 26.4193 16.7257 25.9055 16.8368C24.315 12.8319 20.4048 10.0003 15.8333 10.0003ZM27.5 35.0003H15.8333C8.00926 35.0003 1.66663 28.6577 1.66663 20.8337C1.66663 13.0096 8.00926 6.66699 15.8333 6.66699C20.9055 6.66699 25.3551 9.33264 27.8576 13.3395C33.6751 13.5282 38.3333 18.3037 38.3333 24.167C38.3333 30.1502 33.4831 35.0003 27.5 35.0003Z" fill="#1D86FF"/>
</svg>
