<svg width="40" height="40" viewBox="0 0 40 40" fill="none" xmlns="http://www.w3.org/2000/svg">
<path d="M6.6667 33.333V23.333C6.6667 15.9692 12.6362 9.99967 20 9.99967C27.3638 9.99967 33.3333 15.9692 33.3333 23.333V33.333H35V36.6663H5.00003V33.333H6.6667ZM10 23.333H13.3334C13.3334 19.6512 16.3181 16.6663 20 16.6663V13.333C14.4772 13.333 10 17.8102 10 23.333ZM18.3333 3.33301H21.6667V8.33301H18.3333V3.33301ZM32.9637 8.01236L35.3207 10.3694L31.7852 13.9049L29.4282 11.5479L32.9637 8.01236ZM4.67938 10.3694L7.0364 8.01236L10.5719 11.5479L8.21492 13.9049L4.67938 10.3694Z" fill="#1D86FF"/>
</svg>
