<svg width="40" height="40" viewBox="0 0 40 40" fill="none" xmlns="http://www.w3.org/2000/svg">
<path d="M6.66664 33.333V23.333C6.66664 15.9692 12.6362 9.99967 20 9.99967C27.3638 9.99967 33.3333 15.9692 33.3333 23.333V33.333H35V36.6663H4.99997V33.333H6.66664ZM9.99997 23.333H13.3333C13.3333 19.6512 16.3181 16.6663 20 16.6663V13.333C14.4771 13.333 9.99997 17.8102 9.99997 23.333ZM18.3333 3.33301H21.6666V8.33301H18.3333V3.33301ZM32.9636 8.01236L35.3206 10.3694L31.7851 13.9049L29.4281 11.5479L32.9636 8.01236ZM4.67932 10.3694L7.03634 8.01236L10.5719 11.5479L8.21485 13.9049L4.67932 10.3694Z" fill="#DA3333"/>
</svg>
