<svg width="40" height="40" viewBox="0 0 40 40" fill="none" xmlns="http://www.w3.org/2000/svg">
<path d="M1.14905 15.661C6.30041 11.4951 12.8587 9 19.9998 9C27.1408 9 33.6991 11.4951 38.8506 15.661L36.756 18.2542C32.177 14.5512 26.3475 12.3333 19.9998 12.3333C13.6522 12.3333 7.82256 14.5512 3.24358 18.2542L1.14905 15.661ZM6.38536 22.144C10.1058 19.1353 14.8424 17.3333 19.9998 17.3333C25.1573 17.3333 29.8938 19.1353 33.6143 22.144L31.5196 24.7373C28.3716 22.1915 24.3638 20.6667 19.9998 20.6667C15.6358 20.6667 11.6279 22.1915 8.47989 24.7373L6.38536 22.144ZM11.6217 28.6272C13.9112 26.7755 16.826 25.6667 19.9998 25.6667C23.1736 25.6667 26.0885 26.7755 28.378 28.6272L26.2835 31.2203C24.5663 29.8317 22.3801 29 19.9998 29C17.6195 29 15.4333 29.8317 13.7162 31.2203L11.6217 28.6272Z" fill="white"/>
</svg>
