<svg width="40" height="40" viewBox="0 0 40 40" fill="none" xmlns="http://www.w3.org/2000/svg">
<path d="M20 6.66634C24.581 6.66634 28.6249 8.97677 31.026 12.4997H26.6667V15.833H36.6667V5.83301H33.3334V9.99861C30.2937 5.95244 25.454 3.33301 20 3.33301C10.7953 3.33301 3.33337 10.7949 3.33337 19.9997H6.66671C6.66671 12.6359 12.6362 6.66634 20 6.66634ZM33.3334 19.9997C33.3334 27.3635 27.3639 33.333 20 33.333C15.4191 33.333 11.3752 31.0225 8.97409 27.4997H13.3334V24.1663H3.33337V34.1663H6.66671V30.0007C9.70639 34.0468 14.5461 36.6663 20 36.6663C29.2047 36.6663 36.6667 29.2043 36.6667 19.9997H33.3334Z" fill="#6AC161"/>
</svg>
