<svg width="40" height="40" viewBox="0 0 40 40" fill="none" xmlns="http://www.w3.org/2000/svg">
<path d="M20 30.0003C14.4771 30.0003 9.99996 25.5232 9.99996 20.0003C9.99996 14.4775 14.4771 10.0003 20 10.0003C25.5228 10.0003 30 14.4775 30 20.0003C30 25.5232 25.5228 30.0003 20 30.0003ZM18.3333 1.66699H21.6666V6.66699H18.3333V1.66699ZM18.3333 33.3337H21.6666V38.3337H18.3333V33.3337ZM5.85783 8.21521L8.21484 5.85819L11.7504 9.39373L9.39336 11.7507L5.85783 8.21521ZM28.2495 30.607L30.6066 28.2498L34.1421 31.7855L31.7851 34.1425L28.2495 30.607ZM31.7851 5.85819L34.1421 8.21521L30.6066 11.7507L28.2495 9.39373L31.7851 5.85819ZM9.39336 28.2498L11.7504 30.607L8.21484 34.1425L5.85783 31.7855L9.39336 28.2498ZM38.3333 18.3337V21.667H33.3333V18.3337H38.3333ZM6.66663 18.3337V21.667H1.66663V18.3337H6.66663Z" fill="#C9B23F"/>
</svg>
